<?xml version="1.0" encoding="UTF-8"?>
<!-- Generator: Adobe Illustrator 14.0.0, SVG Export Plug-In . SVG Version: 6.00 Build 43363)  -->
<svg xmlns="http://www.w3.org/2000/svg" xmlns:xlink="http://www.w3.org/1999/xlink" version="1.1" id="Calque_1" x="0px" y="0px" width="139.862px" height="40.63px" viewBox="0 0 139.862 40.63" xml:space="preserve">
<path fill="#1B171B" d="M56.031,34.277l-0.002-8.771h-0.066c-0.312,0.288-1.464,0.31-1.952,0.31h-0.848v0.072  c0.979,0.601,0.846,1.488,0.846,2.595l0.002,3.712c0,1.854-1.823,3.155-3.293,3.155c-1.936,0-2.739-1.374-2.739-3.591v-6.253h-0.066  c-0.31,0.288-1.472,0.31-1.96,0.31h-0.841v0.072c0.979,0.601,0.846,1.488,0.846,2.595v3.698c0,3.385,1.47,4.994,4.093,4.994  c1.559,0,3.158-0.552,3.961-1.873V36.9h2.864v-0.069C55.897,36.277,56.031,35.383,56.031,34.277"></path>
<path fill="#1B171B" d="M68.557,30.983c0.088-3.097-1.982-5.431-5.01-5.431c-3.316,0-5.563,2.408-5.563,5.745  c0,3.364,2.604,5.926,6.388,5.926c1.047,0,2.114-0.167,3.071-0.595l1.114-2.258h-0.068c-1.023,0.87-2.314,1.281-3.651,1.281  c-2.515,0-4.407-1.716-4.451-4.669 M60.476,29.586c0.268-1.505,1.38-2.462,2.87-2.462c1.604,0,2.628,0.788,2.872,2.462H60.476z"></path>
<path fill="#1B171B" d="M70.321,20.412c0.532,0,1.621-0.033,1.95-0.357h0.065v15.187c0.598,0.169,1.217,0.286,1.836,0.286  c2.433,0,3.826-1.699,3.826-4.07c0-2.324-1.084-4.121-3.316-4.121c-0.708,0-1.261,0.191-1.859,0.527l1.196-2.045  c0.507-0.192,1.038-0.266,1.568-0.266c2.522,0,4.666,2.19,4.666,5.475c0,3.758-2.542,6.192-6.567,6.192  c-1.503,0-2.947-0.266-4.036-0.436v-0.072c0.733-0.337,0.666-1.133,0.666-1.927V23.746c0-1.108,0.135-2.661-0.823-3.263v-0.071"></path>
<path fill="#1B171B" d="M92.286,30.983c0.09-3.097-1.98-5.431-5.009-5.431c-3.314,0-5.562,2.408-5.562,5.745  c0,3.364,2.603,5.926,6.388,5.926c1.045,0,2.114-0.167,3.07-0.595l1.112-2.258h-0.065c-1.024,0.87-2.314,1.281-3.651,1.281  c-2.515,0-4.406-1.716-4.452-4.669 M84.206,29.586c0.269-1.505,1.382-2.462,2.872-2.462c1.604,0,2.626,0.788,2.872,2.462H84.206z"></path>
<path fill="#1B171B" d="M102.242,28.305h-0.066c-0.646-0.796-1.716-1.181-2.717-1.181c-2.16,0-3.715,1.639-3.715,3.928  c0,2.768,2.157,4.601,4.627,4.601c1.137,0,2.384-0.481,3.253-1.18h0.064l-1.156,2.274c-0.937,0.38-1.959,0.477-2.94,0.477  c-3.426,0-6.104-2.413-6.104-5.546c0-4.144,2.989-6.125,6.35-6.125c0.804,0,1.626,0.095,2.405,0.284"></path>
<path fill-rule="evenodd" clip-rule="evenodd" fill="#1B171B" d="M65.777,23.566v-2.411c-1.457,0.655-2.813,1.877-3.716,3.066v0.939  C64.226,23.702,65.777,23.635,65.777,23.566"></path>
<g>
	<defs>
		<rect id="SVGID_1_" width="139.862" height="40.63"></rect>
	</defs>
	<clipPath id="SVGID_2_">
		<use xlink:href="#SVGID_1_" overflow="visible"></use>
	</clipPath>
	<path clip-path="url(#SVGID_2_)" fill="#1B171B" d="M47.473,39.251c-2.481,0.406-4.867-0.375-7.401-3.276   c2.448-1.229,3.962-4.289,3.962-7.134v-0.354c-0.045-4.868-3.7-8.081-8.059-8.081c-4.368,0-8.228,3.345-8.26,8.251   c0,0.023-0.001,0.308-0.001,0.328c0,4.773,3.542,8.313,7.882,8.313c0.625,0,1.224-0.095,1.825-0.24   c2.844,2.664,5.378,3.798,7.567,3.534c1.039-0.124,2.136-0.538,2.795-1.393 M35.953,35.565c-3.363,0-5.701-3.792-5.701-7.014   v-0.362c0.042-3.121,2.063-6.048,5.588-6.048c3.71,0,5.624,3.51,5.655,6.834v0.347C41.495,32.866,39.292,35.565,35.953,35.565"></path>
</g>
<path fill="#1B171B" d="M5.368,1.752c-0.481-0.217-0.97-0.32-1.479-0.32c-0.8,0-1.205,0.245-1.205,0.669  c0,0.46,0.452,0.508,1.139,0.837C4.775,3.4,5.228,3.796,5.228,4.671c0,1.376-1.103,2.346-3.042,2.346  C1.412,7.017,0.688,6.902,0,6.658l0.376-1.347c0.528,0.264,1.036,0.405,1.545,0.405c0.923,0,1.441-0.33,1.441-0.819  c0-0.565-0.527-0.669-1.422-1.045C1.206,3.541,0.839,3.042,0.839,2.317c0-1.225,1.063-2.129,2.749-2.129  c0.933,0,1.677,0.104,2.186,0.292"></path>
<path fill="#1B171B" d="M8.787,3.004c-0.678,0-1.3,0.734-1.3,1.771c0,0.641,0.387,1.093,0.933,1.093  c0.678,0,1.271-0.734,1.271-1.771C9.691,3.418,9.323,3.004,8.787,3.004 M11.396,4.173c0,1.656-1.204,2.835-3.136,2.835  c-1.555,0-2.486-0.858-2.486-2.214c0-1.733,1.169-2.9,3.108-2.9C10.454,1.894,11.396,2.76,11.396,4.173"></path>
<path fill="#1B171B" d="M16.021,3.371c-0.358-0.168-0.708-0.254-1.036-0.254c-0.904,0-1.498,0.564-1.498,1.395  c0,0.726,0.479,1.187,1.253,1.187c0.311,0,0.621-0.076,0.96-0.226l-0.197,1.279c-0.509,0.132-0.96,0.199-1.384,0.199  c-1.489,0-2.402-0.914-2.402-2.252c0-1.639,1.178-2.816,3.071-2.816c0.546,0,1.082,0.104,1.618,0.32"></path>
<path fill="#1B171B" d="M19.354,0.33l-0.168,0.866h-1.649l0.161-0.866 M19.006,2.016L17.95,6.866h-1.647l1.054-4.851H19.006z"></path>
<path fill="#1B171B" d="M22.226,0h1.762v0.207l-1.553,1.149h-1.111V1.243 M22.951,3.72c0-0.536-0.329-0.875-0.847-0.875  c-0.519,0-0.952,0.404-1.14,1.102h1.968C22.941,3.87,22.951,3.796,22.951,3.72 M20.748,4.879c0.065,0.715,0.461,1.045,1.242,1.045  c0.519,0,1.094-0.123,1.648-0.367l-0.188,1.195c-0.575,0.179-1.178,0.273-1.79,0.273c-1.525,0-2.43-0.895-2.43-2.27  c0-0.791,0.339-1.61,0.866-2.128c0.509-0.499,1.243-0.763,2.157-0.763c1.347,0,2.081,0.763,2.081,2.09  c0,0.273-0.038,0.585-0.112,0.924H20.748z"></path>
<path fill="#1B171B" d="M27.566,2.024h1.195l-0.244,1.159h-1.196l-0.357,1.686c-0.047,0.207-0.066,0.348-0.066,0.425  c0,0.347,0.151,0.498,0.528,0.498c0.131,0,0.319-0.029,0.556-0.094l-0.246,1.158C27.35,6.922,27.039,6.96,26.803,6.96  c-1.007,0-1.582-0.537-1.582-1.47c0-0.169,0.02-0.329,0.048-0.48l0.386-1.826h-0.989l0.245-1.159h0.99l0.243-1.148l1.771-0.472"></path>
<path fill="#1B171B" d="M31.596,0h1.764v0.207l-1.556,1.149h-1.11V1.243 M32.322,3.72c0-0.536-0.33-0.875-0.847-0.875  c-0.519,0-0.952,0.404-1.141,1.102h1.969C32.313,3.87,32.322,3.796,32.322,3.72 M30.118,4.879c0.066,0.715,0.462,1.045,1.244,1.045  c0.518,0,1.092-0.123,1.647-0.367l-0.188,1.195c-0.574,0.179-1.177,0.273-1.79,0.273c-1.525,0-2.43-0.895-2.43-2.27  c0-0.791,0.338-1.61,0.866-2.128c0.509-0.499,1.243-0.763,2.157-0.763c1.347,0,2.08,0.763,2.08,2.09  c0,0.273-0.038,0.585-0.112,0.924H30.118z"></path>
<path fill="#1B171B" d="M39.669,3.146c-0.65,0-1.215,0.697-1.215,1.667c0,0.565,0.339,0.941,0.838,0.941  c0.678,0,1.28-0.696,1.28-1.619C40.572,3.541,40.195,3.146,39.669,3.146 M43.087,0.33l-1.375,6.536h-1.508l0.18-0.81  c-0.471,0.631-1.073,0.951-1.771,0.951c-1.148,0-1.893-0.82-1.893-2.158c0-1.761,1.064-2.956,2.571-2.956  c0.706,0,1.262,0.33,1.591,0.951L41.42,0.33H43.087z"></path>
<path fill="#1B171B" d="M46.609,3.72c0-0.536-0.33-0.875-0.848-0.875s-0.951,0.404-1.14,1.102h1.969  C46.6,3.87,46.609,3.796,46.609,3.72 M44.404,4.879c0.066,0.715,0.463,1.045,1.245,1.045c0.517,0,1.091-0.123,1.646-0.367  l-0.188,1.195c-0.574,0.179-1.176,0.273-1.788,0.273c-1.525,0-2.431-0.895-2.431-2.27c0-0.791,0.34-1.61,0.867-2.128  c0.509-0.499,1.243-0.763,2.156-0.763c1.347,0,2.081,0.763,2.081,2.09c0,0.273-0.037,0.585-0.112,0.924H44.404z"></path>
<polyline fill="#1B171B" points="53.927,0.339 52.516,6.866 50.838,6.866 52.25,0.339 "></polyline>
<polyline fill="#1B171B" points="57.071,0.339 55.678,2.9 54.379,2.9 55.415,0.339 "></polyline>
<path fill="#1B171B" d="M59.286,4.634c-0.904,0-1.375,0.264-1.375,0.753c0,0.321,0.245,0.547,0.622,0.547  c0.582,0,1.111-0.471,1.232-1.281C59.598,4.634,59.437,4.634,59.286,4.634 M61.133,5.641c-0.076,0.349-0.162,0.754-0.198,1.226  H59.53l0.095-0.735c-0.376,0.557-0.95,0.838-1.676,0.838c-0.999,0-1.621-0.584-1.621-1.441c0-1.083,0.999-1.76,2.854-1.76  c0.246,0,0.51,0.019,0.782,0.047c0.01-0.056,0.01-0.113,0.01-0.16c0-0.49-0.32-0.754-0.932-0.754c-0.565,0-1.093,0.123-1.583,0.367  l0.197-1.13c0.527-0.188,1.056-0.282,1.611-0.282c1.459,0,2.251,0.612,2.251,1.545c0,0.226-0.039,0.526-0.104,0.866L61.133,5.641z"></path>
<path fill="#1B171B" d="M65.944,3.239c-0.48-0.159-0.885-0.272-1.28-0.272c-0.491,0-0.754,0.179-0.754,0.442  c0,0.34,0.386,0.377,0.997,0.631c0.679,0.282,0.99,0.64,0.99,1.197c0,1.025-0.848,1.761-2.289,1.761c-0.658,0-1.3-0.096-1.931-0.311  l0.349-1.168c0.462,0.226,0.904,0.329,1.355,0.329c0.556,0,0.849-0.16,0.849-0.434c0-0.339-0.282-0.405-0.707-0.574  c-0.791-0.319-1.215-0.621-1.215-1.365c0-0.876,0.838-1.593,2.299-1.593c0.536,0,1.102,0.104,1.704,0.293"></path>
<path fill="#1B171B" d="M70.427,3.239c-0.479-0.159-0.885-0.272-1.28-0.272c-0.489,0-0.754,0.179-0.754,0.442  c0,0.34,0.387,0.377,1,0.631c0.678,0.282,0.987,0.64,0.987,1.197c0,1.025-0.848,1.761-2.288,1.761c-0.659,0-1.3-0.096-1.931-0.311  l0.35-1.168c0.46,0.226,0.902,0.329,1.355,0.329c0.556,0,0.847-0.16,0.847-0.434c0-0.339-0.282-0.405-0.706-0.574  c-0.792-0.319-1.215-0.621-1.215-1.365c0-0.876,0.839-1.593,2.298-1.593c0.537,0,1.102,0.104,1.705,0.293"></path>
<path fill="#1B171B" d="M73.346,2.024l-0.508,2.43c-0.037,0.17-0.057,0.33-0.057,0.481c0,0.47,0.228,0.726,0.641,0.726  c0.613,0,1.082-0.538,1.31-1.593l0.434-2.044h1.694l-1.036,4.842h-1.516l0.188-0.819c-0.547,0.621-1.168,0.941-1.846,0.941  c-0.998,0-1.582-0.604-1.582-1.686c0-0.32,0.057-0.772,0.178-1.348l0.406-1.931"></path>
<path fill="#1B171B" d="M81.022,3.409c-0.302-0.085-0.546-0.132-0.735-0.132c-0.771,0-1.109,0.481-1.327,1.497l-0.451,2.092h-1.696  l0.988-4.86h1.536l-0.179,0.885c0.471-0.678,0.942-0.997,1.601-0.997c0.207,0,0.414,0.036,0.64,0.104"></path>
<path fill="#1B171B" d="M83.838,4.634c-0.904,0-1.374,0.264-1.374,0.753c0,0.321,0.244,0.547,0.621,0.547  c0.583,0,1.111-0.471,1.234-1.281C84.149,4.634,83.989,4.634,83.838,4.634 M85.685,5.641c-0.076,0.349-0.16,0.754-0.197,1.226  h-1.403l0.094-0.735c-0.377,0.557-0.952,0.838-1.677,0.838c-0.999,0-1.619-0.584-1.619-1.441c0-1.083,0.999-1.76,2.854-1.76  c0.244,0,0.508,0.019,0.781,0.047c0.01-0.056,0.01-0.113,0.01-0.16c0-0.49-0.32-0.754-0.933-0.754c-0.565,0-1.093,0.123-1.582,0.367  l0.197-1.13c0.527-0.188,1.053-0.282,1.61-0.282c1.461,0,2.252,0.612,2.252,1.545c0,0.226-0.037,0.526-0.104,0.866L85.685,5.641z"></path>
<path fill="#1B171B" d="M91.439,6.866h-1.688l0.51-2.431c0.038-0.179,0.056-0.34,0.056-0.48c0-0.461-0.234-0.716-0.612-0.716  c-0.668,0-1.11,0.528-1.337,1.583l-0.433,2.044h-1.696l1.036-4.889h1.518l-0.189,0.867c0.547-0.621,1.169-0.942,1.847-0.942  c0.998,0,1.582,0.611,1.582,1.694c0,0.312-0.056,0.755-0.179,1.339"></path>
<path fill="#1B171B" d="M96.787,3.371c-0.357-0.168-0.705-0.254-1.035-0.254c-0.904,0-1.498,0.564-1.498,1.395  c0,0.726,0.481,1.187,1.254,1.187c0.312,0,0.621-0.076,0.959-0.226l-0.196,1.279c-0.509,0.132-0.961,0.199-1.385,0.199  c-1.488,0-2.402-0.914-2.402-2.252c0-1.639,1.178-2.816,3.071-2.816c0.545,0,1.082,0.104,1.619,0.32"></path>
<path fill="#1B171B" d="M100.922,3.72c0-0.536-0.328-0.875-0.848-0.875c-0.517,0-0.951,0.404-1.139,1.102h1.968  C100.914,3.87,100.922,3.796,100.922,3.72 M98.719,4.879c0.065,0.715,0.461,1.045,1.243,1.045c0.518,0,1.093-0.123,1.648-0.367  l-0.188,1.195c-0.576,0.179-1.177,0.273-1.789,0.273c-1.526,0-2.431-0.895-2.431-2.27c0-0.791,0.34-1.61,0.867-2.128  c0.509-0.499,1.242-0.763,2.156-0.763c1.347,0,2.082,0.763,2.082,2.09c0,0.273-0.039,0.585-0.114,0.924H98.719z"></path>
<path fill="#1B171B" d="M3.126,14.051c-0.903,0-1.374,0.265-1.374,0.754c0,0.32,0.245,0.547,0.621,0.547  c0.585,0,1.111-0.471,1.234-1.282C3.438,14.051,3.277,14.051,3.126,14.051 M4.971,15.06c-0.073,0.348-0.157,0.753-0.195,1.225H3.372  l0.094-0.735c-0.376,0.556-0.951,0.839-1.676,0.839c-0.999,0-1.62-0.584-1.62-1.441c0-1.083,0.998-1.761,2.854-1.761  c0.244,0,0.508,0.019,0.78,0.047c0.01-0.056,0.01-0.113,0.01-0.16c0-0.489-0.319-0.754-0.932-0.754  c-0.564,0-1.092,0.123-1.583,0.367l0.198-1.13c0.527-0.188,1.056-0.282,1.611-0.282c1.459,0,2.251,0.611,2.251,1.545  c0,0.226-0.038,0.527-0.104,0.865L4.971,15.06z"></path>
<path fill="#1B171B" d="M8.438,11.443L7.93,13.872c-0.037,0.17-0.056,0.33-0.056,0.48c0,0.471,0.226,0.726,0.64,0.726  c0.613,0,1.084-0.537,1.31-1.591l0.433-2.044h1.696l-1.037,4.841H9.399l0.188-0.82c-0.546,0.622-1.168,0.942-1.847,0.942  c-0.998,0-1.581-0.603-1.581-1.687c0-0.32,0.056-0.771,0.178-1.347l0.405-1.93"></path>
<path fill="#1B171B" d="M15.239,11.443h1.195l-0.245,1.158h-1.196l-0.357,1.687c-0.047,0.206-0.066,0.347-0.066,0.423  c0,0.349,0.151,0.499,0.528,0.499c0.131,0,0.319-0.029,0.556-0.094l-0.246,1.158c-0.386,0.065-0.697,0.104-0.932,0.104  c-1.008,0-1.582-0.537-1.582-1.47c0-0.169,0.019-0.329,0.047-0.48l0.386-1.826h-0.988l0.244-1.158h0.99l0.244-1.148l1.771-0.472"></path>
<path fill="#1B171B" d="M19.562,12.423c-0.679,0-1.3,0.734-1.3,1.77c0,0.641,0.386,1.093,0.933,1.093  c0.678,0,1.271-0.734,1.271-1.771C20.465,12.837,20.098,12.423,19.562,12.423 M22.169,13.591c0,1.657-1.204,2.835-3.135,2.835  c-1.555,0-2.486-0.857-2.486-2.214c0-1.733,1.168-2.9,3.107-2.9C21.228,11.312,22.169,12.178,22.169,13.591"></path>
<path fill="#1B171B" d="M30.392,16.284h-1.609l0.507-2.43c0.057-0.255,0.086-0.452,0.086-0.604c0-0.358-0.198-0.574-0.509-0.574  c-0.255,0-0.48,0.113-0.649,0.329c-0.283,0.358-0.321,0.781-0.414,1.234l-0.435,2.044h-1.714l0.519-2.43  c0.056-0.255,0.074-0.472,0.074-0.66c0-0.329-0.179-0.518-0.508-0.518c-0.519,0-0.81,0.396-0.979,1.195l-0.518,2.412h-1.715  l1.035-4.889h1.451l-0.188,0.886c0.536-0.64,1.054-0.962,1.694-0.962c0.697,0,1.131,0.322,1.328,0.952  c0.528-0.65,1.027-0.952,1.733-0.952c0.904,0,1.479,0.574,1.479,1.527c0,0.292-0.038,0.518-0.065,0.658"></path>
<path fill="#1B171B" d="M34.753,12.423c-0.68,0-1.301,0.734-1.301,1.77c0,0.641,0.387,1.093,0.933,1.093  c0.678,0,1.271-0.734,1.271-1.771C35.656,12.837,35.289,12.423,34.753,12.423 M37.36,13.591c0,1.657-1.206,2.835-3.136,2.835  c-1.554,0-2.486-0.857-2.486-2.214c0-1.733,1.168-2.9,3.107-2.9C36.42,11.312,37.36,12.178,37.36,13.591"></path>
<path fill="#1B171B" d="M41.223,12.563c-0.669,0-1.271,0.706-1.271,1.582c0,0.631,0.357,1.026,0.894,1.026  c0.649,0,1.215-0.706,1.215-1.638C42.061,12.931,41.73,12.563,41.223,12.563 M40.808,9.748l-0.509,2.308  c0.452-0.5,0.979-0.754,1.61-0.754c1.141,0,1.885,0.828,1.885,2.165c0,1.752-1.056,2.95-2.563,2.95  c-0.763,0-1.327-0.368-1.704-1.112l-0.235,0.979h-1.525l1.365-6.536H40.808z"></path>
<path fill="#1B171B" d="M47.354,9.748l-0.169,0.866h-1.648l0.16-0.866 M47.005,11.434l-1.055,4.851h-1.647l1.054-4.851H47.005z"></path>
<polyline fill="#1B171B" points="50.434,9.757 49.021,16.284 47.344,16.284 48.757,9.757 "></polyline>
<path fill="#1B171B" d="M54.342,13.139c0-0.537-0.33-0.877-0.848-0.877c-0.519,0-0.951,0.405-1.14,1.103h1.969  C54.333,13.288,54.342,13.214,54.342,13.139 M52.139,14.297c0.064,0.716,0.461,1.046,1.242,1.046c0.519,0,1.093-0.124,1.648-0.367  l-0.188,1.194c-0.574,0.179-1.177,0.273-1.79,0.273c-1.525,0-2.429-0.895-2.429-2.27c0-0.791,0.338-1.61,0.866-2.128  c0.509-0.499,1.243-0.763,2.156-0.763c1.347,0,2.081,0.763,2.081,2.09c0,0.272-0.037,0.585-0.112,0.924H52.139z"></path>
<rect x="108.951" y="16.427" fill="#0664AB" width="13.488" height="8.268"></rect>
<path fill-rule="evenodd" clip-rule="evenodd" fill="#FFFFFF" d="M115.695,16.858c-0.1,0.183-0.318,0.441-0.688,0.91  c-0.432,0.535-0.356,1.251-0.151,1.676c0.233,0.489,0.368,0.896,0.475,1.279c0.148,0.56,0.052,1.307,0.062,1.238h-0.373  c0-0.911-0.286-1.771-0.974-2.152c-0.978-0.54-1.942,0.399-1.637,1.375c0.163,0.512,0.45,0.684,0.531,0.684  c0,0-0.136-0.563,0.272-0.851c0.387-0.271,0.859-0.108,1.08,0.215c0.206,0.309,0.239,0.729,0.239,0.729h-0.702v0.521l1.414-0.001  c0,0-0.039,0.733-0.813,0.662c0,0,0.097,0.578,0.813,0.276c0,0-0.039,0.604,0.452,0.911c0.491-0.307,0.454-0.911,0.454-0.911  c0.717,0.302,0.811-0.276,0.811-0.276c-0.773,0.071-0.811-0.662-0.811-0.662l1.413,0.001v-0.521h-0.703c0,0,0.033-0.421,0.242-0.729  c0.219-0.323,0.693-0.486,1.075-0.215c0.408,0.287,0.275,0.851,0.275,0.851c0.082,0,0.367-0.172,0.531-0.684  c0.307-0.976-0.66-1.915-1.636-1.375c-0.69,0.382-0.973,1.241-0.973,2.152h-0.374c0.009,0.068-0.088-0.679,0.062-1.238  c0.104-0.384,0.24-0.79,0.474-1.279c0.204-0.425,0.281-1.141-0.149-1.676C116.018,17.3,115.795,17.041,115.695,16.858"></path>
<rect x="126.369" y="16.427" fill="#0664AB" width="13.493" height="8.268"></rect>
<path fill-rule="evenodd" clip-rule="evenodd" fill="#FFFFFF" d="M133.115,16.858c-0.103,0.183-0.321,0.441-0.693,0.91  c-0.431,0.535-0.354,1.251-0.149,1.676c0.234,0.489,0.368,0.896,0.476,1.279c0.146,0.56,0.052,1.307,0.062,1.238h-0.375  c0-0.911-0.284-1.771-0.974-2.152c-0.977-0.54-1.942,0.399-1.635,1.375c0.162,0.512,0.448,0.684,0.53,0.684  c0,0-0.134-0.563,0.276-0.851c0.379-0.271,0.856-0.108,1.073,0.215c0.21,0.309,0.243,0.729,0.243,0.729h-0.702v0.521l1.41-0.001  c0,0-0.037,0.733-0.808,0.662c0,0,0.092,0.578,0.808,0.276c0,0-0.037,0.604,0.458,0.911c0.488-0.307,0.45-0.911,0.45-0.911  c0.717,0.302,0.814-0.276,0.814-0.276c-0.776,0.071-0.814-0.662-0.814-0.662l1.416,0.001v-0.521h-0.706c0,0,0.035-0.421,0.24-0.729  c0.223-0.323,0.695-0.486,1.08-0.215c0.406,0.287,0.276,0.851,0.276,0.851c0.079,0,0.366-0.172,0.525-0.684  c0.307-0.976-0.66-1.915-1.636-1.375c-0.686,0.382-0.971,1.241-0.971,2.152h-0.372c0.01,0.068-0.09-0.679,0.061-1.238  c0.104-0.384,0.24-0.79,0.474-1.279c0.204-0.425,0.279-1.141-0.15-1.676C133.434,17.3,133.209,17.041,133.115,16.858"></path>
<rect x="108.951" y="28.632" fill="#0664AB" width="13.488" height="8.265"></rect>
<path fill-rule="evenodd" clip-rule="evenodd" fill="#FFFFFF" d="M115.695,29.063c-0.1,0.181-0.318,0.441-0.688,0.908  c-0.432,0.535-0.356,1.252-0.151,1.675c0.233,0.489,0.368,0.894,0.475,1.28c0.148,0.557,0.052,1.306,0.062,1.238h-0.373  c0-0.91-0.286-1.771-0.974-2.151c-0.978-0.543-1.942,0.398-1.637,1.374c0.163,0.511,0.45,0.685,0.531,0.685  c0,0-0.136-0.563,0.272-0.854c0.387-0.27,0.859-0.105,1.08,0.215c0.206,0.31,0.239,0.731,0.239,0.731h-0.702v0.52l1.414-0.001  c0,0-0.039,0.733-0.813,0.664c0,0,0.097,0.577,0.813,0.273c0,0-0.039,0.608,0.452,0.912c0.491-0.304,0.454-0.912,0.454-0.912  c0.717,0.304,0.811-0.273,0.811-0.273c-0.773,0.069-0.811-0.664-0.811-0.664l1.413,0.001v-0.52h-0.703c0,0,0.033-0.422,0.242-0.731  c0.219-0.32,0.693-0.484,1.075-0.215c0.408,0.291,0.275,0.854,0.275,0.854c0.082,0,0.367-0.174,0.531-0.685  c0.307-0.976-0.66-1.917-1.636-1.374c-0.69,0.38-0.973,1.241-0.973,2.151h-0.374c0.009,0.067-0.088-0.682,0.062-1.238  c0.104-0.387,0.24-0.791,0.474-1.28c0.204-0.423,0.281-1.14-0.149-1.675C116.018,29.505,115.795,29.244,115.695,29.063"></path>
<rect x="126.369" y="28.632" fill="#0664AB" width="13.493" height="8.265"></rect>
<path fill-rule="evenodd" clip-rule="evenodd" fill="#FFFFFF" d="M133.115,29.063c-0.103,0.181-0.321,0.441-0.693,0.908  c-0.431,0.535-0.354,1.252-0.149,1.675c0.234,0.489,0.368,0.894,0.476,1.28c0.146,0.557,0.052,1.306,0.062,1.238h-0.375  c0-0.91-0.284-1.771-0.974-2.151c-0.977-0.543-1.942,0.398-1.635,1.374c0.162,0.511,0.448,0.685,0.53,0.685  c0,0-0.134-0.563,0.276-0.854c0.379-0.27,0.856-0.105,1.073,0.215c0.21,0.31,0.243,0.731,0.243,0.731h-0.702v0.52l1.41-0.001  c0,0-0.037,0.733-0.808,0.664c0,0,0.092,0.577,0.808,0.273c0,0-0.037,0.608,0.458,0.912c0.488-0.304,0.45-0.912,0.45-0.912  c0.717,0.304,0.814-0.273,0.814-0.273c-0.776,0.069-0.814-0.664-0.814-0.664l1.416,0.001v-0.52h-0.706c0,0,0.035-0.422,0.24-0.731  c0.223-0.32,0.695-0.484,1.08-0.215c0.406,0.291,0.276,0.854,0.276,0.854c0.079,0,0.366-0.174,0.525-0.685  c0.307-0.976-0.66-1.917-1.636-1.374c-0.686,0.38-0.971,1.241-0.971,2.151h-0.372c0.01,0.067-0.09-0.682,0.061-1.238  c0.104-0.387,0.24-0.791,0.474-1.28c0.204-0.423,0.279-1.14-0.15-1.675C133.434,29.505,133.209,29.244,133.115,29.063"></path>
</svg>
